<?xml version="1.0" encoding="utf-8"?>
<!-- Generator: Adobe Illustrator 22.0.1, SVG Export Plug-In . SVG Version: 6.00 Build 0)  -->
<svg version="1.1" xmlns="http://www.w3.org/2000/svg" xmlns:xlink="http://www.w3.org/1999/xlink" x="0px" y="0px"
	 viewBox="0 0 333 491" style="enable-background:new 0 0 333 491;" xml:space="preserve">
<style type="text/css">
	.st0{display:none;}
	.st1{display:inline;fill:none;stroke:#08BF72;stroke-width:0.5;stroke-miterlimit:10;}
	.st2{fill:none;stroke:#1C1CF4;stroke-width:2;stroke-miterlimit:10;}
	.st3{fill:#67FECB;stroke:#4C34D6;stroke-width:3;stroke-miterlimit:10;}
	.st4{fill:#FF4E23;}
</style>
<g id="Ebene_1">
</g>
<g id="Ebene_2">
</g>
<g id="Ebene_3" class="st0">
	<polyline class="st1" points="-49,362 -36,370 -39,395 -30,392 -36,408 -23,417 -28,434 -18,443 -21,419 -11,421 -16,402 -6,402 
		-13,393 0,384 -8,375 5,355 5,390 15,389 10,409 22,415 17,433 32,430 26,414 38,408 33,390 42,394 37,378 50,355 48,382 59,385 
		51,394 63,399 59,420 69,420 65,443 76,435 71,415 86,400 77,394 91,383 82,376 95,370 87,361 	"/>
</g>
<g id="Ebene_4">
	<path class="st2" d="M-198.5,1.5"/>
	<path class="st3" d="M331.5,248.5c0-80,0-247,0-247h-160h-10H1.5c0,0,0,167,0,247c0,78.4-2.9,234.7,160,240.8v0.2
		c1.7,0,3.3,0,5-0.1c1.7,0,3.3,0.1,5,0.1v-0.2C334.4,483.2,331.5,326.9,331.5,248.5z"/>
	<g id="S8z00R.tif">
		<g>
			<path class="st4" d="M291.2,51.3L291.2,51.3L291.2,51.3c0-0.4,0-0.9,0-1.3c0,0,0,0,0,0C291.2,50.4,291.2,50.8,291.2,51.3z"/>
			<path class="st4" d="M291.2,49.9c0,0.4,0,0.9,0,1.3c0,1-0.1,2.1-0.2,3.1c-0.4,4.5-1.9,8.6-4.6,12.3c-1.6,2.1-3.4,4-5.3,5.9
				c-2.3,2.2-4.8,4.3-7.2,6.4c-4.8,4.1-9.5,8.3-14.1,12.7c-0.1,0.1-0.1,0.1-0.2,0c-4.4-4.2-9-8.2-13.6-12.2
				c-2.7-2.4-5.5-4.7-8.1-7.2c-1.7-1.6-3.3-3.3-4.7-5.2c-2-2.6-3.4-5.4-4.2-8.6c-0.4-1.5-0.6-3-0.7-4.5c-0.1-1.4-0.2-2.8-0.1-4.1
				c0.2-7.2,4.8-13.2,11.8-15.1c2.1-0.6,4.2-0.7,6.3-0.5c3.7,0.4,6.8,1.9,9.6,4.4c1.5,1.3,2.7,2.9,3.8,4.6c0,0.1,0.1,0.1,0.1,0.2
				c0.1-0.1,0.1-0.2,0.2-0.3c1.4-2.2,3.1-4.1,5.2-5.7c2.2-1.6,4.7-2.7,7.5-3.1c4.7-0.6,9,0.4,12.7,3.4c2.6,2.1,4.3,4.8,5.2,8
				C291,47.1,291.2,48.5,291.2,49.9z"/>
		</g>
	</g>
</g>
</svg>
