<?xml version="1.0" encoding="utf-8"?>
<!-- Generator: Adobe Illustrator 22.0.1, SVG Export Plug-In . SVG Version: 6.00 Build 0)  -->
<svg version="1.1" xmlns="http://www.w3.org/2000/svg" xmlns:xlink="http://www.w3.org/1999/xlink" x="0px" y="0px"
	 viewBox="0 0 1366 768" style="enable-background:new 0 0 1366 768;" xml:space="preserve">
<style type="text/css">
	.st0{fill:#33CCFF;}
	.st1{fill:#FFFFFF;}
</style>
<g id="Ebene_1">
	<g>
		<rect x="-8" y="-16" class="st0" width="1382" height="784"/>
	</g>
</g>
<g id="Ebene_2">
	<path class="st1" d="M-20,111c0,0,38-10,62,9s99,29,128-12s70-18,14-78S96-79,72-38S-37,14-43,94s-6,80-6,80l0,0"/>
	<path class="st1" d="M-19,376c0,0,67,98,161-21s127-254,257-181s162,108,203,13S641,11,702,48s244,54,245,139s15,233-18,250
		s-139-62-231-9S576,578,546,594s-121,42-199-17S62,637,62,637l-90-50"/>
	<path class="st1" d="M585,772l55.4-67.3c9.1-11.1,23.3-16.7,37.5-15c59,7.2,215.6,27.8,271.1,50.3c69,28,80-6,204-12s125-9,162,3
		s66-15,92-102s-110,541-110,541s-498-56-503-56s-409-86-409-86"/>
	<path class="st1" d="M1236,89c-38-82-153,33-193-56S937-69,1021-78s302,120,321,139s-64,127-26,256s36,173-22,179s-53-138-143-82
		s-58-160-26-174S1274,171,1236,89z"/>
</g>
</svg>
