<?xml version="1.0" encoding="utf-8"?>
<!-- Generator: Adobe Illustrator 22.0.1, SVG Export Plug-In . SVG Version: 6.00 Build 0)  -->
<svg version="1.1" id="Ebene_1" xmlns="http://www.w3.org/2000/svg" xmlns:xlink="http://www.w3.org/1999/xlink" x="0px" y="0px"
	 viewBox="0 0 133.8 214.4" style="enable-background:new 0 0 133.8 214.4;" xml:space="preserve">
<style type="text/css">
	.st0{fill:#7CF7CA;}
	.st1{fill:#67FECB;}
	.st2{fill:#68D8AD;}
	.st3{fill:#52C199;}
	.st4{fill:#5D5E5F;}
</style>
<g id="_x31_KpcsP_1_">
	<g>
		<path class="st0" d="M4.1,107.4c9.4-15.8,18.8-31.6,28.2-47.4c9.7-16.2,19.5-32.4,29.3-48.6c0.9-1.5,1.2-3.5,3.2-4.1
			c2.4,0.9,1.6,3.1,1.6,4.7c0,22.7,0,45.3,0,68c-0.4,0.4-0.9,0.8-1.3,1.2c-2.1-0.1-3.8,1-5.6,1.8c-13,5.9-25.9,12-39,17.7
			C15.2,103,10.2,106.4,4.1,107.4z"/>
		<path class="st1" d="M66.5,80c0-22.7,0.1-45.3,0-68c0-1.7,0.8-3.8-1.6-4.7c0.3-0.7,0.6-1.3,0.9-2c0.3,0,0.5,0,0.8,0
			c5.8,9.4,11.7,18.8,17.5,28.2c13.2,21.8,26.4,43.6,39.5,65.5c1.6,2.6,3.7,5,4.3,8.2c-1-0.1-2.1,0-2.9-0.4
			C105.5,97.8,86,88.9,66.5,80z"/>
		<path class="st2" d="M4.1,107.4c6-1,11-4.4,16.5-6.8c13.1-5.7,26-11.8,39-17.7c1.8-0.8,3.5-1.9,5.6-1.8c1.8,0.8,1.5,2.4,1.5,3.8
			c0,18.5,0,36.9,0,55.4c0,1.9,0.1,3.8-2.6,3.9c-13.6-7.9-27.2-15.8-40.8-23.7c-5.9-3.4-11.7-6.9-17.6-10.4
			C4.8,109.6,2.9,109.3,4.1,107.4z"/>
		<path class="st3" d="M64.2,144.3c2.7-0.1,2.6-2,2.6-3.9c0-18.5,0-36.9,0-55.4c0-1.4,0.3-3.1-1.5-3.8c0.4-0.4,0.9-0.8,1.3-1.2
			c19.5,8.9,39,17.9,58.5,26.8c0.9,0.4,1.9,0.3,2.9,0.4c2.6,2.4-0.6,2.6-1.5,3.1c-9.5,5.8-19,11.4-28.6,17
			c-9.4,5.6-18.8,11.2-28.2,16.7C68,144.9,66.2,146.9,64.2,144.3z"/>
		<path class="st2" d="M66.8,207.4c-2.9,2.1-2.9-1.2-3.6-2.2c-12.9-18-25.7-36-38.5-54.1c-6.4-9.1-12.8-18.1-19.5-27.5
			c2.6-0.9,3.9,0.7,5.3,1.5c16.6,9.8,33.2,19.6,49.8,29.3c2.1,1.2,4,3.1,6.7,3.1C66.2,174.2,66.5,190.8,66.8,207.4z"/>
		<path class="st3" d="M66.8,207.4c-0.2-16.6-0.5-33.2,0.2-49.8c17.8-10.5,35.7-21,53.5-31.5c1.1-0.6,2.2-2.6,3.8-1
			c1.5,1.5,0.1,2.8-0.7,3.9c-18,25.4-36.1,50.9-54.2,76.3C68.7,206.2,68.2,207.3,66.8,207.4z"/>
		<path class="st4" d="M66.6,5.2c-0.3,0-0.5,0-0.8,0c0-0.5,0-1,0.6-0.8C66.6,4.4,66.6,5,66.6,5.2z"/>
	</g>
</g>
</svg>
