<?xml version="1.0" encoding="utf-8"?>
<!-- Generator: Adobe Illustrator 22.0.1, SVG Export Plug-In . SVG Version: 6.00 Build 0)  -->
<svg version="1.1" id="Ebene_1" xmlns="http://www.w3.org/2000/svg" xmlns:xlink="http://www.w3.org/1999/xlink" x="0px" y="0px"
	 viewBox="0 0 2149.4 509.7" style="enable-background:new 0 0 2149.4 509.7;" xml:space="preserve">
<style type="text/css">
	.st0{fill:#67FECB;}
	.st1{fill:#E5E5E5;}
</style>
<path class="st0" d="M0.8,420.6c0,0,62,53,88,48s153-90,208-97s134,46,205,43s179-45,244-50s157,47,212,42s178.4-121.1,287-152
	c102.5-29.1,260.2,40,354-39c58.4-49.2,155-169,223-184c101.9-22.5,330,47,330,47l4,672l-2153-3L0.8,420.6z"/>
<path class="st1" d="M2155.8,750.6l-2152,2l-1-250c0,0,49-91,110-98s112.5,39,169,33s134-68,208-73s143.9,35,220,50s173-37,232-50
	s217,49,328-5s167-169,266-213c107-47.6,214-4,272-22s75-41.7,131.1-84.6c112.9-86.4,211.9-40.4,211.9-40.4L2155.8,750.6z"/>
</svg>
