<?xml version="1.0" encoding="utf-8"?>
<!-- Generator: Adobe Illustrator 22.0.1, SVG Export Plug-In . SVG Version: 6.00 Build 0)  -->
<svg version="1.1" id="Ebene_1" xmlns="http://www.w3.org/2000/svg" xmlns:xlink="http://www.w3.org/1999/xlink" x="0px" y="0px"
	 viewBox="0 0 89.9 89.9" style="enable-background:new 0 0 89.9 89.9;" xml:space="preserve">
<style type="text/css">
	.st0{fill:#33CCFF;}
	.st1{fill:#FFFFFF;}
</style>
<g>
	<path class="st0" d="M43,0c-5.2,0.2-10.1,1.3-14.7,3.1l-1.6,11.5L4,26.4c-2.3,5.1-3.7,10.7-3.9,16.6l38.3-23.8L43,0z"/>
	<path class="st0" d="M20.7,7.1c-3.2,2.1-6.1,4.5-8.7,7.3l8.3-4.3L20.7,7.1z"/>
	<path class="st0" d="M69,27.8l9.5-12.8C71.3,7,61.4,1.5,50.2,0.2l-5.7,23.4L0.4,50.9c2.9,21.4,20.9,38,42.9,38.8l-11-37.9L69,27.8z
		"/>
	<path class="st0" d="M82.9,20.8l-9,12.2L40.5,54.9l10,34.6c6.7-0.8,13-3.2,18.5-6.6l-7-17.1l19.1-10.2l6.8,2.4
		c1.3-4.1,1.9-8.5,1.9-13.1C89.9,36,87.3,27.7,82.9,20.8z"/>
	<path class="st0" d="M70.9,69l3.9,9.5c4.4-3.9,8-8.7,10.6-14l-3.7-1.3L70.9,69z"/>
	<path class="st1" d="M62,65.8l7,17.1c2-1.3,4-2.8,5.8-4.4L70.9,69l10.9-5.8l3.7,1.3c1-2.1,1.9-4.3,2.5-6.5l-6.8-2.4L62,65.8z"/>
	<path class="st1" d="M50.2,0.2C48.5,0,46.7-0.1,45-0.1c-0.6,0-1.3,0-1.9,0l-4.6,19.2L0.1,42.9c0,0.6,0,1.3,0,1.9
		c0,2.1,0.2,4.1,0.4,6.1l44.1-27.4L50.2,0.2z"/>
	<path class="st1" d="M73.9,32.9l9-12.2c-1.3-2.1-2.8-4-4.4-5.8L69,27.8L32.4,51.9l11,37.9c0.5,0,1.1,0,1.6,0c1.9,0,3.7-0.1,5.6-0.4
		l-10-34.6L73.9,32.9z"/>
	<path class="st1" d="M28.3,3.1c-2.7,1.1-5.2,2.4-7.6,3.9l-0.4,3l-8.3,4.3c-3.3,3.5-6,7.6-8,12l22.7-11.7L28.3,3.1z"/>
</g>
</svg>
